<svg width="16" height="16" viewBox="0 0 16 16" fill="none" xmlns="http://www.w3.org/2000/svg">
<g clip-path="url(#clip0_3698_3795)">
<path d="M16 5.34239C16 5.34239 16 5.33989 16 5.33739V3.70489C16 2.45239 14.9825 1.43239 13.73 1.43239H13.2V1.08489C13.2 0.564893 12.7775 0.139893 12.2575 0.139893C11.7375 0.139893 11.3125 0.562393 11.3125 1.08489V1.43239H4.69V1.08489C4.69 0.564893 4.2675 0.139893 3.745 0.139893C3.2225 0.139893 2.8025 0.562393 2.8025 1.08489V1.43239H2.2725C1.02 1.43239 0 2.45239 0 3.70489V13.5874C0 14.8399 1.02 15.8599 2.2725 15.8599H13.73C14.9825 15.8599 16 14.8399 16 13.5874V5.34739C16 5.34739 16 5.34489 16 5.34239ZM12.255 0.639893C12.5 0.639893 12.6975 0.839893 12.6975 1.08489V2.28239C12.6975 2.52739 12.4975 2.72739 12.255 2.72739C12.0125 2.72739 11.81 2.52739 11.81 2.28239V1.68489V1.08989C11.81 0.844893 12.01 0.644893 12.255 0.644893V0.639893ZM3.3025 1.08489C3.3025 0.839893 3.5025 0.639893 3.745 0.639893C3.9875 0.639893 4.19 0.839893 4.19 1.08489V1.68239V2.28239C4.19 2.52739 3.99 2.72739 3.745 2.72739C3.5 2.72739 3.3025 2.52739 3.3025 2.28239V1.08489ZM2.2725 1.93239H2.8025V2.28239C2.8025 2.80239 3.225 3.22739 3.745 3.22739C4.265 3.22739 4.69 2.80489 4.69 2.28239V1.93239H11.3125V2.28239C11.3125 2.80239 11.735 3.22739 12.2575 3.22739C12.78 3.22739 13.2 2.80489 13.2 2.28239V1.93239H13.73C14.705 1.93239 15.5 2.72739 15.5 3.70489V5.09239H0.5V3.70489C0.5 2.72739 1.295 1.93239 2.2725 1.93239ZM13.73 15.3599H2.2725C1.295 15.3599 0.5 14.5649 0.5 13.5874V5.59239H15.5V13.5874C15.5 14.5649 14.705 15.3599 13.73 15.3599Z" fill="#177181"/>
<path d="M2.2725 1.93239H2.8025V2.28239C2.8025 2.80239 3.225 3.22739 3.745 3.22739C4.265 3.22739 4.69 2.80489 4.69 2.28239V1.93239H11.3125V2.28239C11.3125 2.80239 11.735 3.22739 12.2575 3.22739C12.78 3.22739 13.2 2.80489 13.2 2.28239V1.93239H13.73C14.705 1.93239 15.5 2.72739 15.5 3.70489V5.09239H0.5V3.70489C0.5 2.72739 1.295 1.93239 2.2725 1.93239Z" fill="#B0E7F1"/>
<path d="M13.73 15.3599H2.2725C1.295 15.3599 0.5 14.5649 0.5 13.5874V5.59239H15.5V13.5874C15.5 14.5649 14.705 15.3599 13.73 15.3599Z" fill="#B0E7F1"/>
<path d="M12.255 0.639893C12.5 0.639893 12.6975 0.839893 12.6975 1.08489V2.28239C12.6975 2.52739 12.4975 2.72739 12.255 2.72739C12.0125 2.72739 11.81 2.52739 11.81 2.28239V1.68489V1.08989C11.81 0.844893 12.01 0.644893 12.255 0.644893V0.639893Z" fill="#B0E7F1"/>
<path d="M3.3025 1.08489C3.3025 0.839893 3.5025 0.639893 3.745 0.639893C3.9875 0.639893 4.19 0.839893 4.19 1.08489V1.68239V2.28239C4.19 2.52739 3.99 2.72739 3.745 2.72739C3.5 2.72739 3.3025 2.52739 3.3025 2.28239V1.08489Z" fill="#B0E7F1"/>
<path d="M3.60059 7.41016H3.10059C2.96251 7.41016 2.85059 7.52209 2.85059 7.66016V8.16016C2.85059 8.29823 2.96251 8.41016 3.10059 8.41016H3.60059C3.73866 8.41016 3.85059 8.29823 3.85059 8.16016V7.66016C3.85059 7.52209 3.73866 7.41016 3.60059 7.41016Z" fill="#177181"/>
<path d="M6.7002 7.40991H6.2002C6.06212 7.40991 5.9502 7.52184 5.9502 7.65991V8.15991C5.9502 8.29798 6.06212 8.40991 6.2002 8.40991H6.7002C6.83827 8.40991 6.9502 8.29798 6.9502 8.15991V7.65991C6.9502 7.52184 6.83827 7.40991 6.7002 7.40991Z" fill="#177181"/>
<path d="M9.7998 7.40991H9.2998C9.16173 7.40991 9.0498 7.52184 9.0498 7.65991V8.15991C9.0498 8.29798 9.16173 8.40991 9.2998 8.40991H9.7998C9.93788 8.40991 10.0498 8.29798 10.0498 8.15991V7.65991C10.0498 7.52184 9.93788 7.40991 9.7998 7.40991Z" fill="#177181"/>
<path d="M12.8994 7.41016H12.3994C12.2613 7.41016 12.1494 7.52209 12.1494 7.66016V8.16016C12.1494 8.29823 12.2613 8.41016 12.3994 8.41016H12.8994C13.0375 8.41016 13.1494 8.29823 13.1494 8.16016V7.66016C13.1494 7.52209 13.0375 7.41016 12.8994 7.41016Z" fill="#177181"/>
<path d="M3.60059 9.97485H3.10059C2.96251 9.97485 2.85059 10.0868 2.85059 10.2249V10.7249C2.85059 10.8629 2.96251 10.9749 3.10059 10.9749H3.60059C3.73866 10.9749 3.85059 10.8629 3.85059 10.7249V10.2249C3.85059 10.0868 3.73866 9.97485 3.60059 9.97485Z" fill="#177181"/>
<path d="M6.7002 9.9751H6.2002C6.06212 9.9751 5.9502 10.087 5.9502 10.2251V10.7251C5.9502 10.8632 6.06212 10.9751 6.2002 10.9751H6.7002C6.83827 10.9751 6.9502 10.8632 6.9502 10.7251V10.2251C6.9502 10.087 6.83827 9.9751 6.7002 9.9751Z" fill="#177181"/>
<path d="M9.7998 9.9751H9.2998C9.16173 9.9751 9.0498 10.087 9.0498 10.2251V10.7251C9.0498 10.8632 9.16173 10.9751 9.2998 10.9751H9.7998C9.93788 10.9751 10.0498 10.8632 10.0498 10.7251V10.2251C10.0498 10.087 9.93788 9.9751 9.7998 9.9751Z" fill="#177181"/>
<path d="M12.8994 9.97485H12.3994C12.2613 9.97485 12.1494 10.0868 12.1494 10.2249V10.7249C12.1494 10.8629 12.2613 10.9749 12.3994 10.9749H12.8994C13.0375 10.9749 13.1494 10.8629 13.1494 10.7249V10.2249C13.1494 10.0868 13.0375 9.97485 12.8994 9.97485Z" fill="#177181"/>
<path d="M3.60059 12.5427H3.10059C2.96251 12.5427 2.85059 12.6547 2.85059 12.7927V13.2927C2.85059 13.4308 2.96251 13.5427 3.10059 13.5427H3.60059C3.73866 13.5427 3.85059 13.4308 3.85059 13.2927V12.7927C3.85059 12.6547 3.73866 12.5427 3.60059 12.5427Z" fill="#177181"/>
<path d="M6.7002 12.5425H6.2002C6.06212 12.5425 5.9502 12.6544 5.9502 12.7925V13.2925C5.9502 13.4306 6.06212 13.5425 6.2002 13.5425H6.7002C6.83827 13.5425 6.9502 13.4306 6.9502 13.2925V12.7925C6.9502 12.6544 6.83827 12.5425 6.7002 12.5425Z" fill="#177181"/>
<path d="M9.7998 12.5425H9.2998C9.16173 12.5425 9.0498 12.6544 9.0498 12.7925V13.2925C9.0498 13.4306 9.16173 13.5425 9.2998 13.5425H9.7998C9.93788 13.5425 10.0498 13.4306 10.0498 13.2925V12.7925C10.0498 12.6544 9.93788 12.5425 9.7998 12.5425Z" fill="#177181"/>
<path d="M12.8994 12.5427H12.3994C12.2613 12.5427 12.1494 12.6547 12.1494 12.7927V13.2927C12.1494 13.4308 12.2613 13.5427 12.3994 13.5427H12.8994C13.0375 13.5427 13.1494 13.4308 13.1494 13.2927V12.7927C13.1494 12.6547 13.0375 12.5427 12.8994 12.5427Z" fill="#177181"/>
</g>
<defs>
<clipPath id="clip0_3698_3795">
<rect width="16" height="16" fill="white"/>
</clipPath>
</defs>
</svg>
