<svg width="16" height="16" viewBox="0 0 16 16" fill="none" xmlns="http://www.w3.org/2000/svg">
<g clip-path="url(#clip0_3698_3790)">
<path fill-rule="evenodd" clip-rule="evenodd" d="M15.8525 8.13512C15.8525 6.91262 15.565 5.75262 15.0525 4.72262L14.7825 4.22762C13.945 2.81512 12.6725 1.68512 11.145 1.02012L10.6175 0.815117C9.79746 0.527617 8.91746 0.370117 7.99996 0.370117C7.08246 0.370117 6.19996 0.527617 5.37996 0.815117L4.85746 1.02262C3.32996 1.68512 2.05496 2.81512 1.21996 4.23012L0.947461 4.72512C0.434961 5.75512 0.147461 6.91262 0.147461 8.13762C0.147461 10.4076 1.13746 12.4526 2.71246 13.8726L3.10746 14.2026C3.59496 14.5876 4.12746 14.9151 4.69746 15.1776L5.17246 15.3801C6.04996 15.7176 7.00496 15.9026 8.00246 15.9026C8.99996 15.9026 9.95246 15.7151 10.8325 15.3801L11.305 15.1776C11.875 14.9151 12.4075 14.5876 12.895 14.2026L13.2925 13.8726C14.8675 12.4526 15.8575 10.4076 15.8575 8.13762L15.8525 8.13512ZM0.652461 8.38512H1.49746C1.63496 8.38512 1.74746 8.27262 1.74746 8.13512C1.74746 7.99762 1.63496 7.88512 1.49746 7.88512H0.652461C0.784961 4.07762 3.89496 1.00512 7.74996 0.875117V1.63262C7.74996 1.77012 7.86246 1.88262 7.99996 1.88262C8.13746 1.88262 8.24996 1.77012 8.24996 1.63262V0.875117C12.105 1.00262 15.215 4.07512 15.3475 7.88512H14.5025C14.365 7.88512 14.2525 7.99762 14.2525 8.13512C14.2525 8.27262 14.365 8.38512 14.5025 8.38512H15.3475C15.2175 12.1926 12.105 15.2651 8.24996 15.3951V14.6376C8.24996 14.5001 8.13746 14.3876 7.99996 14.3876C7.86246 14.3876 7.74996 14.5001 7.74996 14.6376V15.3951C3.89496 15.2676 0.784961 12.1951 0.652461 8.38512Z" fill="#177181"/>
<path d="M0.652461 8.38512H1.49746C1.63496 8.38512 1.74746 8.27262 1.74746 8.13512C1.74746 7.99762 1.63496 7.88512 1.49746 7.88512H0.652461C0.784961 4.07762 3.89496 1.00512 7.74996 0.875117V1.63262C7.74996 1.77012 7.86246 1.88262 7.99996 1.88262C8.13746 1.88262 8.24996 1.77012 8.24996 1.63262V0.875117C12.105 1.00262 15.215 4.07512 15.3475 7.88512H14.5025C14.365 7.88512 14.2525 7.99762 14.2525 8.13512C14.2525 8.27262 14.365 8.38512 14.5025 8.38512H15.3475C15.2175 12.1926 12.105 15.2651 8.24996 15.3951V14.6376C8.24996 14.5001 8.13746 14.3876 7.99996 14.3876C7.86246 14.3876 7.74996 14.5001 7.74996 14.6376V15.3951C3.89496 15.2676 0.784961 12.1951 0.652461 8.38512Z" fill="#B0E7F1"/>
<path d="M5.63051 10.755C5.69551 10.755 5.75801 10.73 5.80801 10.6825L7.38801 9.10005C7.56551 9.21255 7.77551 9.28005 8.00051 9.28005C8.63301 9.28005 9.14801 8.76505 9.14801 8.13255C9.14801 7.58505 8.76301 7.13005 8.25051 7.01505V3.48755C8.25051 3.35005 8.13801 3.23755 8.00051 3.23755C7.86301 3.23755 7.75051 3.35005 7.75051 3.48755V7.01505C7.23801 7.13005 6.85301 7.58755 6.85301 8.13255C6.85301 8.35755 6.92051 8.56755 7.03301 8.74505L5.45301 10.3275C5.35551 10.425 5.35551 10.5825 5.45301 10.68C5.50301 10.73 5.56551 10.7525 5.63051 10.7525V10.755ZM8.00051 7.48755C8.35801 7.48755 8.64801 7.77755 8.64801 8.13505C8.64801 8.49255 8.35801 8.78255 8.00051 8.78255C7.64301 8.78255 7.35301 8.49255 7.35301 8.13505C7.35301 7.77755 7.64301 7.48755 8.00051 7.48755Z" fill="#177181"/>
</g>
<defs>
<clipPath id="clip0_3698_3790">
<rect width="16" height="16" fill="white"/>
</clipPath>
</defs>
</svg>
